<svg width="27" height="28" viewBox="0 0 27 28" fill="none" xmlns="http://www.w3.org/2000/svg">
<g id="brazil" clip-path="url(#clip0_2_10846)">
<path id="Vector" d="M26.3442 22.5971H1.00536C0.755478 22.5971 0.552856 22.3945 0.552856 22.1446V5.85533C0.552856 5.60545 0.755478 5.40283 1.00536 5.40283H26.3443C26.5942 5.40283 26.7968 5.60545 26.7968 5.85533V22.1446C26.7967 22.3946 26.5941 22.5971 26.3442 22.5971Z" fill="#73AF00"/>
<path id="Vector_2" d="M13.4395 7.80852L3.90267 13.6135C3.61301 13.7898 3.61301 14.2102 3.90267 14.3865L13.4395 20.1915C13.5839 20.2795 13.7655 20.2795 13.91 20.1915L23.4468 14.3866C23.7365 14.2103 23.7365 13.7899 23.4468 13.6135L13.91 7.80852C13.7655 7.72056 13.5839 7.72056 13.4395 7.80852Z" fill="#FFE15A"/>
<path id="Vector_3" d="M13.6747 17.6198C15.6739 17.6198 17.2946 15.9992 17.2946 14C17.2946 12.0009 15.6739 10.3802 13.6747 10.3802C11.6756 10.3802 10.0549 12.0009 10.0549 14C10.0549 15.9992 11.6756 17.6198 13.6747 17.6198Z" fill="#41479B"/>
<g id="Group">
<path id="Vector_4" d="M10.5688 12.1482C10.398 12.4341 10.2661 12.7449 10.179 13.0748C12.1856 12.9238 15.1541 13.4852 17.0435 15.3185C17.1668 15.0037 17.2482 14.6684 17.2787 14.3179C15.3278 12.6759 12.6307 12.092 10.5688 12.1482Z" fill="#F5F5F5"/>
<path id="Vector_5" d="M13.8248 15.2353L13.9212 15.5243L14.2258 15.5266C14.2652 15.5269 14.2816 15.5773 14.2499 15.6007L14.0048 15.7817L14.0967 16.0721C14.1086 16.1097 14.0658 16.1408 14.0337 16.1179L13.7859 15.9407L13.5381 16.1179C13.506 16.1408 13.4632 16.1097 13.4751 16.0721L13.567 15.7817L13.3219 15.6007C13.2902 15.5773 13.3065 15.5269 13.346 15.5266L13.6506 15.5243L13.7469 15.2353C13.7594 15.1979 13.8123 15.1979 13.8248 15.2353Z" fill="#F5F5F5"/>
<path id="Vector_6" d="M15.0088 15.9829L15.0503 16.1072L15.1814 16.1083C15.1983 16.1084 15.2054 16.13 15.1917 16.1401L15.0862 16.218L15.1258 16.343C15.1309 16.3592 15.1125 16.3726 15.0986 16.3627L14.992 16.2865L14.8853 16.3627C14.8715 16.3726 14.8531 16.3592 14.8582 16.343L14.8977 16.218L14.7922 16.1401C14.7786 16.1301 14.7856 16.1084 14.8026 16.1083L14.9337 16.1072L14.9752 15.9829C14.9806 15.9667 15.0034 15.9667 15.0088 15.9829Z" fill="#F5F5F5"/>
<path id="Vector_7" d="M13.3129 14.6863L13.3543 14.8106L13.4855 14.8117C13.5024 14.8118 13.5095 14.8335 13.4958 14.8436L13.3903 14.9214L13.4298 15.0464C13.435 15.0626 13.4166 15.076 13.4027 15.0661L13.2961 14.9899L13.1894 15.0661C13.1756 15.076 13.1571 15.0626 13.1623 15.0464L13.2018 14.9214L13.0963 14.8436C13.0827 14.8335 13.0897 14.8118 13.1067 14.8117L13.2378 14.8106L13.2792 14.6863C13.2847 14.6702 13.3075 14.6702 13.3129 14.6863Z" fill="#F5F5F5"/>
<path id="Vector_8" d="M11.0161 14.5355L11.0576 14.6599L11.1887 14.6609C11.2057 14.661 11.2127 14.6827 11.1991 14.6928L11.0936 14.7706L11.1331 14.8956C11.1382 14.9118 11.1198 14.9252 11.106 14.9153L10.9993 14.8391L10.8926 14.9153C10.8788 14.9252 10.8604 14.9118 10.8655 14.8956L10.905 14.7706L10.7996 14.6928C10.7859 14.6827 10.7929 14.661 10.8099 14.6609L10.941 14.6599L10.9825 14.5355C10.988 14.5194 11.0107 14.5194 11.0161 14.5355Z" fill="#F5F5F5"/>
<path id="Vector_9" d="M12.9376 15.9399L12.9791 16.0643L13.1102 16.0653C13.1272 16.0654 13.1342 16.0871 13.1206 16.0972L13.0151 16.175L13.0546 16.3001C13.0597 16.3163 13.0413 16.3296 13.0275 16.3197L12.9208 16.2435L12.8141 16.3197C12.8004 16.3296 12.7819 16.3163 12.787 16.3001L12.8266 16.175L12.7211 16.0972C12.7074 16.0871 12.7144 16.0655 12.7314 16.0653L12.8625 16.0643L12.904 15.9399C12.9095 15.9239 12.9323 15.9239 12.9376 15.9399Z" fill="#F5F5F5"/>
<path id="Vector_10" d="M11.8803 14.4487L11.9142 14.5504L12.0215 14.5513C12.0353 14.5514 12.0411 14.5691 12.03 14.5774L11.9437 14.641L11.9761 14.7432C11.9803 14.7565 11.9652 14.7674 11.9539 14.7593L11.8666 14.697L11.7794 14.7593C11.7681 14.7674 11.753 14.7565 11.7572 14.7432L11.7895 14.641L11.7033 14.5774C11.6921 14.5691 11.6978 14.5514 11.7118 14.5513L11.819 14.5504L11.8529 14.4487C11.8573 14.4355 11.8759 14.4355 11.8803 14.4487Z" fill="#F5F5F5"/>
<path id="Vector_11" d="M15.1009 12.3491L15.1433 12.4764L15.2774 12.4774C15.2948 12.4775 15.302 12.4997 15.288 12.51L15.1801 12.5896L15.2206 12.7175C15.2259 12.7341 15.2069 12.7478 15.1928 12.7377L15.0837 12.6597L14.9746 12.7377C14.9604 12.7478 14.9416 12.734 14.9469 12.7175L14.9873 12.5896L14.8795 12.51C14.8655 12.4997 14.8727 12.4775 14.89 12.4774L15.0241 12.4764L15.0665 12.3491C15.0721 12.3326 15.0954 12.3326 15.1009 12.3491Z" fill="#F5F5F5"/>
<path id="Vector_12" d="M11.164 13.8266L11.1979 13.9283L11.3052 13.9291C11.319 13.9292 11.3248 13.947 11.3137 13.9552L11.2274 14.0189L11.2597 14.1211C11.264 14.1343 11.2489 14.1453 11.2376 14.1372L11.1503 14.0749L11.0631 14.1372C11.0517 14.1453 11.0367 14.1343 11.0409 14.1211L11.0732 14.0189L10.987 13.9552C10.9758 13.947 10.9815 13.9293 10.9955 13.9291L11.1027 13.9283L11.1366 13.8266C11.141 13.8134 11.1596 13.8134 11.164 13.8266Z" fill="#F5F5F5"/>
<path id="Vector_13" d="M11.6816 15.2599L11.733 15.414L11.8954 15.4152C11.9164 15.4154 11.9251 15.4422 11.9082 15.4547L11.7776 15.5512L11.8266 15.706C11.8329 15.726 11.8101 15.7426 11.793 15.7304L11.6608 15.6359L11.5287 15.7304C11.5116 15.7426 11.4888 15.726 11.4951 15.706L11.5441 15.5512L11.4135 15.4547C11.3966 15.4422 11.4053 15.4154 11.4263 15.4152L11.5887 15.414L11.64 15.2599C11.6468 15.24 11.675 15.24 11.6816 15.2599Z" fill="#F5F5F5"/>
<path id="Vector_14" d="M15.669 16.0152L15.7013 16.1121L15.8034 16.1129C15.8166 16.113 15.8221 16.1298 15.8115 16.1377L15.7293 16.1984L15.7601 16.2957C15.7641 16.3083 15.7498 16.3188 15.739 16.3111L15.6559 16.2517L15.5728 16.3111C15.562 16.3188 15.5476 16.3083 15.5516 16.2957L15.5824 16.1984L15.5002 16.1377C15.4896 16.1298 15.4951 16.113 15.5083 16.1129L15.6105 16.1121L15.6428 16.0152C15.647 16.0026 15.6648 16.0026 15.669 16.0152Z" fill="#F5F5F5"/>
<path id="Vector_15" d="M16.0265 15.2755L16.068 15.3999L16.1991 15.4009C16.216 15.401 16.2231 15.4227 16.2094 15.4328L16.1039 15.5106L16.1435 15.6356C16.1486 15.6518 16.1302 15.6652 16.1163 15.6553L16.0097 15.5791L15.903 15.6553C15.8892 15.6652 15.8708 15.6518 15.8759 15.6356L15.9154 15.5106L15.8099 15.4328C15.7963 15.4227 15.8033 15.401 15.8203 15.4009L15.9514 15.3999L15.9929 15.2755C15.9983 15.2594 16.0211 15.2594 16.0265 15.2755Z" fill="#F5F5F5"/>
</g>
</g>
<defs>
<clipPath id="clip0_2_10846">
<rect width="26.2439" height="26.2439" fill="white" transform="translate(0.552856 0.878021)"/>
</clipPath>
</defs>
</svg>
