<svg width="27" height="28" viewBox="0 0 27 28" fill="none" xmlns="http://www.w3.org/2000/svg">
<g id="canada" clip-path="url(#clip0_2_10831)">
<g id="Group">
<path id="Vector" d="M26.3442 22.597H1.00536C0.755478 22.597 0.552856 22.3944 0.552856 22.1445V5.85518C0.552856 5.6053 0.755478 5.40268 1.00536 5.40268H26.3443C26.5942 5.40268 26.7968 5.6053 26.7968 5.85518V22.1445C26.7967 22.3944 26.5941 22.597 26.3442 22.597Z" fill="#F5F5F5"/>
<path id="Vector_2" d="M20.9144 5.40295H6.43518V22.5973H20.9144V5.40295Z" fill="#F5F5F5"/>
</g>
<g id="Group_2">
<path id="Vector_3" d="M1.00536 5.40271C0.755478 5.40271 0.552856 5.60528 0.552856 5.85516V22.1445C0.552856 22.3944 0.755478 22.597 1.00536 22.597H6.43513V5.40271H1.00536Z" fill="#FF4B55"/>
<path id="Vector_4" d="M26.3442 5.40271H20.9144V22.597H26.3442C26.5941 22.597 26.7967 22.3944 26.7967 22.1445V5.85516C26.7967 5.60528 26.5941 5.40271 26.3442 5.40271Z" fill="#FF4B55"/>
<path id="Vector_5" d="M16.4206 15.9866L19.1056 14.4524L18.4895 14.1443C18.3167 14.0579 18.2178 13.8713 18.2434 13.6797L18.4438 12.1768L17.3071 12.5075C17.056 12.5806 16.7954 12.4261 16.7389 12.1708L16.63 11.6787L15.5627 12.9279C15.4147 13.101 15.1329 12.9688 15.1715 12.7442L15.6273 10.0938L14.9294 10.2847C14.7256 10.3405 14.5103 10.2477 14.4109 10.0612L13.676 8.68387V8.68182L13.6755 8.68285L13.6749 8.68182V8.68387L12.9401 10.0612C12.8406 10.2476 12.6253 10.3404 12.4214 10.2847L11.7235 10.0938L12.1793 12.7442C12.2179 12.9687 11.936 13.1009 11.788 12.9279L10.7207 11.6787L10.6118 12.1708C10.5553 12.4261 10.2948 12.5805 10.0436 12.5075L8.9069 12.1768L9.10737 13.6797C9.13295 13.8712 9.03402 14.0579 8.86123 14.1443L8.24512 14.4524L10.9301 15.9866C11.2083 16.1456 11.3302 16.4827 11.218 16.7827L10.9884 17.3966L13.2891 17.2002C13.4164 17.1893 13.5248 17.2918 13.5211 17.4195L13.4486 19.8821H13.9011L13.8286 17.4194C13.8248 17.2917 13.9332 17.1892 14.0605 17.2001L16.3623 17.3966L16.1327 16.7827C16.0206 16.4826 16.1425 16.1455 16.4206 15.9866Z" fill="#FF4B55"/>
</g>
</g>
<defs>
<clipPath id="clip0_2_10831">
<rect width="26.2439" height="26.2439" fill="white" transform="translate(0.552856 0.878021)"/>
</clipPath>
</defs>
</svg>
