<svg width="27" height="28" viewBox="0 0 27 28" fill="none" xmlns="http://www.w3.org/2000/svg">
<g id="india" clip-path="url(#clip0_2_10970)">
<path id="Vector" d="M26.7967 11.1343H0.552856V5.85535C0.552856 5.60547 0.755478 5.40285 1.00536 5.40285H26.3443C26.5942 5.40285 26.7968 5.60547 26.7968 5.85535L26.7967 11.1343Z" fill="#FAB446"/>
<path id="Vector_2" d="M26.3442 22.5971H1.00536C0.755478 22.5971 0.552856 22.3945 0.552856 22.1446V16.8657H26.7967V22.1446C26.7967 22.3946 26.5941 22.5971 26.3442 22.5971Z" fill="#73AF00"/>
<path id="Vector_3" d="M26.7967 11.1342H0.552856V16.8653H26.7967V11.1342Z" fill="#F5F5F5"/>
<g id="Group">
<path id="Vector_4" d="M13.6749 16.4321C12.3338 16.4321 11.2428 15.3411 11.2428 14C11.2428 12.6589 12.3338 11.568 13.6749 11.568C15.016 11.568 16.1069 12.6589 16.1069 14C16.1069 15.3411 15.016 16.4321 13.6749 16.4321ZM13.6749 12.0204C12.5832 12.0204 11.6952 12.9083 11.6952 14C11.6952 15.0917 12.5832 15.9796 13.6749 15.9796C14.7666 15.9796 15.6545 15.0917 15.6545 14C15.6545 12.9083 14.7666 12.0204 13.6749 12.0204Z" fill="#41479B"/>
<path id="Vector_5" d="M13.6748 14.2757C13.827 14.2757 13.9505 14.1523 13.9505 14C13.9505 13.8478 13.827 13.7243 13.6748 13.7243C13.5225 13.7243 13.399 13.8478 13.399 14C13.399 14.1523 13.5225 14.2757 13.6748 14.2757Z" fill="#41479B"/>
<path id="Vector_6" d="M13.6749 14.0414L12.9742 14.1121L11.4691 14.0414V13.9587L12.9742 13.8879L13.6749 13.9587V14.0414Z" fill="#41479B"/>
<path id="Vector_7" d="M13.6748 14.0414L14.3755 14.1121L15.8806 14.0414V13.9587L14.3755 13.8879L13.6748 13.9587V14.0414Z" fill="#41479B"/>
<path id="Vector_8" d="M13.6335 14L13.5627 13.2993L13.6335 11.7942H13.7162L13.7869 13.2993L13.7162 14H13.6335Z" fill="#41479B"/>
<path id="Vector_9" d="M13.6335 14L13.5627 14.7007L13.6335 16.2059H13.7162L13.7869 14.7007L13.7162 14H13.6335Z" fill="#41479B"/>
<path id="Vector_10" d="M13.6457 14.0293L13.1002 13.5839L12.0859 12.4695L12.1444 12.4111L13.2588 13.4253L13.7041 13.9708L13.6457 14.0293Z" fill="#41479B"/>
<path id="Vector_11" d="M13.6458 14.0292L14.0911 14.5747L15.2055 15.589L15.264 15.5305L14.2497 14.4162L13.7042 13.9708L13.6458 14.0292Z" fill="#41479B"/>
<path id="Vector_12" d="M13.6458 13.9708L14.0911 13.4253L15.2055 12.4111L15.264 12.4695L14.2497 13.5839L13.7042 14.0293L13.6458 13.9708Z" fill="#41479B"/>
<path id="Vector_13" d="M13.6457 13.9708L13.1002 14.4162L12.0859 15.5305L12.1444 15.589L13.2588 14.5747L13.7041 14.0292L13.6457 13.9708Z" fill="#41479B"/>
<path id="Vector_14" d="M13.6907 14.0382L13.0704 14.3717L11.6528 14.8824L11.6211 14.8059L12.9846 14.1646L13.659 13.9618L13.6907 14.0382Z" fill="#41479B"/>
<path id="Vector_15" d="M13.6907 14.0383L14.3651 13.8354L15.7286 13.1941L15.697 13.1177L14.2794 13.6283L13.6591 13.9618L13.6907 14.0383Z" fill="#41479B"/>
<path id="Vector_16" d="M13.6367 14.0159L13.3032 13.3955L12.7926 11.978L12.869 11.9463L13.5104 13.3098L13.7132 13.9842L13.6367 14.0159Z" fill="#41479B"/>
<path id="Vector_17" d="M13.6367 14.0159L13.8395 14.6903L14.4809 16.0538L14.5573 16.0221L14.0467 14.6045L13.7132 13.9842L13.6367 14.0159Z" fill="#41479B"/>
<path id="Vector_18" d="M13.659 14.0383L12.9846 13.8354L11.6211 13.1941L11.6528 13.1177L13.0704 13.6283L13.6907 13.9618L13.659 14.0383Z" fill="#41479B"/>
<path id="Vector_19" d="M13.6591 14.0382L14.2794 14.3717L15.697 14.8824L15.7286 14.8059L14.3651 14.1646L13.6907 13.9618L13.6591 14.0382Z" fill="#41479B"/>
<path id="Vector_20" d="M13.6367 13.9842L13.8395 13.3098L14.4809 11.9463L14.5573 11.978L14.0467 13.3955L13.7132 14.0159L13.6367 13.9842Z" fill="#41479B"/>
<path id="Vector_21" d="M13.6367 13.9842L13.3032 14.6045L12.7926 16.0221L12.869 16.0538L13.5104 14.6903L13.7132 14.0159L13.6367 13.9842Z" fill="#41479B"/>
</g>
<path id="Vector_22" d="M13.6749 14.372C13.8803 14.372 14.0468 14.2055 14.0468 14C14.0468 13.7946 13.8803 13.6281 13.6749 13.6281C13.4695 13.6281 13.303 13.7946 13.303 14C13.303 14.2055 13.4695 14.372 13.6749 14.372Z" fill="#F5F5F5"/>
<path id="Vector_23" d="M13.6748 14.2231C13.798 14.2231 13.8978 14.1232 13.8978 14C13.8978 13.8769 13.798 13.777 13.6748 13.777C13.5516 13.777 13.4518 13.8769 13.4518 14C13.4518 14.1232 13.5516 14.2231 13.6748 14.2231Z" fill="#41479B"/>
</g>
<defs>
<clipPath id="clip0_2_10970">
<rect width="26.2439" height="26.2439" fill="white" transform="translate(0.552856 0.878023)"/>
</clipPath>
</defs>
</svg>
