<svg width="27" height="28" viewBox="0 0 27 28" fill="none" xmlns="http://www.w3.org/2000/svg">
<g id="new-zealand" clip-path="url(#clip0_2_10946)">
<path id="Vector" d="M26.3442 22.5972H1.00536C0.755478 22.5972 0.552856 22.3945 0.552856 22.1447V5.85536C0.552856 5.60548 0.755478 5.40286 1.00536 5.40286H26.3443C26.5942 5.40286 26.7968 5.60548 26.7968 5.85536V22.1447C26.7967 22.3946 26.5941 22.5972 26.3442 22.5972Z" fill="#41479B"/>
<path id="Vector_2" d="M13.2223 5.4029H12.4363L8.24498 8.14898V5.4029H5.98257V8.14898L1.79124 5.4029H1.00536C0.755478 5.4029 0.552856 5.60547 0.552856 5.85535V6.21426L4.14883 8.57021H0.552856V10.8326H4.14883L0.552856 13.1886V13.5475C0.552856 13.7974 0.755478 14 1.00536 14H1.79134L5.98268 11.254V14H8.24508V11.254L12.4364 14H13.2224C13.4722 14 13.6749 13.7974 13.6749 13.5475V13.1886L10.0789 10.8327H13.6748V8.57026H10.0788L13.6748 6.21431V5.8554C13.6748 5.60547 13.4722 5.4029 13.2223 5.4029Z" fill="#F5F5F5"/>
<g id="Group">
<path id="Vector_3" d="M13.6748 9.02276H7.79253V5.4029H6.43513V9.02276H0.552856V10.3802H6.43513V14H7.79253V10.3802H13.6748V9.02276Z" fill="#FF4B55"/>
<path id="Vector_4" d="M5.53012 8.57025L0.768497 5.47936C0.641788 5.55953 0.552856 5.69429 0.552856 5.85534V5.87881L4.69903 8.57025H5.53012Z" fill="#FF4B55"/>
<path id="Vector_5" d="M9.07609 8.57026L13.6059 5.62981C13.5272 5.4966 13.3883 5.4029 13.2223 5.4029H13.1244L8.245 8.57026H9.07609Z" fill="#FF4B55"/>
<path id="Vector_6" d="M5.1391 10.8327L0.61792 13.7675C0.695883 13.9039 0.836944 14 1.00538 14H1.09072L5.97024 10.8327H5.1391Z" fill="#FF4B55"/>
<path id="Vector_7" d="M13.6677 13.583L9.43046 10.8327H8.59937L13.4111 13.956C13.5553 13.8891 13.6541 13.749 13.6677 13.583Z" fill="#FF4B55"/>
<path id="Vector_8" d="M20.8238 19.7467C20.8055 19.7467 20.787 19.7409 20.7712 19.7299L20.2357 19.3472L19.7001 19.7299C19.6844 19.7409 19.6659 19.7467 19.6475 19.7467C19.6288 19.7467 19.6102 19.7409 19.5943 19.7294C19.5629 19.7064 19.5495 19.6658 19.5611 19.6287L19.7598 19.0012L19.2304 18.6106C19.1991 18.5872 19.186 18.547 19.198 18.5099C19.2101 18.4728 19.2444 18.4475 19.2835 18.4471L19.9417 18.4418L20.1498 17.8174C20.1622 17.7808 20.1969 17.7556 20.2358 17.7556C20.2747 17.7556 20.3094 17.7807 20.3218 17.8174L20.5299 18.4418L21.1881 18.4471C21.2272 18.4476 21.2615 18.4728 21.2736 18.5099C21.2856 18.547 21.2725 18.5872 21.2412 18.6106L20.7118 19.0012L20.9104 19.6287C20.9221 19.6658 20.9087 19.7064 20.8773 19.7294C20.8612 19.7409 20.8424 19.7467 20.8238 19.7467Z" fill="#FF4B55"/>
</g>
<path id="Vector_9" d="M20.2358 17.8461L20.4645 18.5318L21.1873 18.5374L20.6058 18.9668L20.8238 19.656L20.2358 19.2357L19.6477 19.6561L19.8658 18.9669L19.2843 18.5375L20.0071 18.5319L20.2358 17.8461ZM20.2358 17.6651C20.158 17.6651 20.0888 17.7149 20.0641 17.7888L19.8763 18.3519L19.2829 18.3565C19.205 18.357 19.1362 18.4074 19.1121 18.4815C19.0881 18.5557 19.1141 18.6368 19.1767 18.6831L19.6541 19.0356L19.4752 19.6015C19.4517 19.6757 19.4783 19.7567 19.5413 19.8025C19.5731 19.8255 19.6104 19.837 19.6477 19.837C19.6846 19.837 19.7215 19.8258 19.753 19.8033L20.2359 19.4581L20.7187 19.8033C20.7502 19.8257 20.7871 19.837 20.8239 19.837C20.8613 19.837 20.8986 19.8255 20.9304 19.8025C20.9933 19.7567 21.02 19.6757 20.9965 19.6015L20.8175 19.0356L21.2949 18.6831C21.3576 18.6368 21.3836 18.5557 21.3595 18.4815C21.3354 18.4075 21.2667 18.357 21.1888 18.3565L20.5953 18.3519L20.4076 17.7888C20.3829 17.715 20.3137 17.6651 20.2358 17.6651Z" fill="#F5F5F5"/>
<path id="Vector_10" d="M20.8238 12.4517C20.8053 12.4517 20.787 12.4459 20.7712 12.4349L20.2357 12.0518L19.7001 12.4349C19.6844 12.4459 19.6659 12.4517 19.6475 12.4517C19.629 12.4517 19.6102 12.4459 19.5943 12.4345C19.5629 12.4115 19.5495 12.3709 19.5611 12.3337L19.7598 11.7062L19.2304 11.3152C19.1991 11.2918 19.186 11.2511 19.198 11.2145C19.2101 11.1774 19.2446 11.1522 19.2835 11.1517L19.9417 11.1469L20.1498 10.5225C20.1622 10.4859 20.1969 10.4606 20.2358 10.4606C20.2747 10.4606 20.3094 10.4858 20.3218 10.5225L20.5299 11.1469L21.1881 11.1517C21.227 11.1522 21.2615 11.1774 21.2736 11.2145C21.2856 11.2511 21.2725 11.2918 21.2412 11.3152L20.7118 11.7062L20.9104 12.3337C20.9221 12.3709 20.9087 12.4115 20.8773 12.4345C20.8612 12.4459 20.8424 12.4517 20.8238 12.4517Z" fill="#FF4B55"/>
<path id="Vector_11" d="M20.2358 10.5511L20.4645 11.2368L21.1873 11.2424L20.6058 11.6718L20.8238 12.361L20.2358 11.9406L19.6477 12.361L19.8658 11.6718L19.2843 11.2424L20.0071 11.2368L20.2358 10.5511ZM20.2358 10.3701C20.158 10.3701 20.0888 10.4199 20.0641 10.4938L19.8763 11.0568L19.2829 11.0614C19.205 11.062 19.1362 11.1124 19.1121 11.1865C19.0881 11.2606 19.1141 11.3418 19.1767 11.388L19.6541 11.7406L19.4752 12.3064C19.4517 12.3807 19.4783 12.4617 19.5413 12.5075C19.5731 12.5305 19.6104 12.542 19.6477 12.542C19.6846 12.542 19.7215 12.5307 19.753 12.5082L20.2359 12.1631L20.7187 12.5082C20.7502 12.5307 20.7871 12.542 20.8239 12.542C20.8613 12.542 20.8986 12.5305 20.9304 12.5075C20.9933 12.4616 21.02 12.3807 20.9965 12.3064L20.8175 11.7406L21.2949 11.388C21.3576 11.3418 21.3836 11.2606 21.3595 11.1865C21.3354 11.1124 21.2667 11.062 21.1888 11.0614L20.5953 11.0568L20.4076 10.4938C20.3829 10.4199 20.3137 10.3701 20.2358 10.3701Z" fill="#F5F5F5"/>
<path id="Vector_12" d="M23.9914 14.7141C23.9728 14.7141 23.9545 14.7083 23.9388 14.6973L23.4033 14.3142L22.8677 14.6973C22.852 14.7083 22.8335 14.7141 22.8151 14.7141C22.7966 14.7141 22.7778 14.7083 22.7619 14.6968C22.7305 14.6739 22.7171 14.6332 22.7287 14.5961L22.9274 13.9686L22.398 13.5776C22.3667 13.5541 22.3536 13.5135 22.3656 13.4769C22.3777 13.4397 22.4122 13.4145 22.4511 13.4141L23.1093 13.4092L23.3174 12.7849C23.3298 12.7482 23.3645 12.723 23.4034 12.723C23.4423 12.723 23.477 12.7482 23.4894 12.7849L23.6975 13.4092L24.3557 13.4141C24.3946 13.4146 24.4291 13.4397 24.4412 13.4769C24.4532 13.5135 24.4401 13.5541 24.4088 13.5776L23.8794 13.9686L24.0781 14.5961C24.0897 14.6332 24.0763 14.6739 24.0449 14.6968C24.0287 14.7083 24.01 14.7141 23.9914 14.7141Z" fill="#FF4B55"/>
<path id="Vector_13" d="M23.4033 12.8135L23.632 13.4992L24.3548 13.5048L23.7733 13.9342L23.9913 14.6234L23.4032 14.203L22.8152 14.6234L23.0332 13.9342L22.4517 13.5048L23.1745 13.4992L23.4033 12.8135ZM23.4033 12.6325C23.3254 12.6325 23.2562 12.6823 23.2316 12.7562L23.0438 13.3192L22.4504 13.3238C22.3725 13.3244 22.3037 13.3748 22.2796 13.4489C22.2555 13.523 22.2816 13.6042 22.3442 13.6505L22.8216 14.003L22.6426 14.5688C22.6192 14.6431 22.6458 14.7241 22.7088 14.7699C22.7405 14.7929 22.7778 14.8044 22.8152 14.8044C22.8521 14.8044 22.889 14.7931 22.9204 14.7706L23.4033 14.4255L23.8861 14.7706C23.9177 14.7931 23.9545 14.8044 23.9914 14.8044C24.0287 14.8044 24.0661 14.7929 24.0978 14.7699C24.1608 14.724 24.1875 14.6431 24.164 14.5688L23.985 14.003L24.4624 13.6505C24.5251 13.6042 24.5511 13.523 24.527 13.4489C24.5029 13.3748 24.4342 13.3244 24.3563 13.3238L23.7628 13.3192L23.5751 12.7562C23.5504 12.6823 23.4812 12.6325 23.4033 12.6325Z" fill="#F5F5F5"/>
<path id="Vector_14" d="M17.6567 15.6191C17.6381 15.6191 17.6198 15.6133 17.6041 15.6023L17.0686 15.2192L16.533 15.6023C16.5173 15.6133 16.4987 15.6191 16.4804 15.6191C16.4618 15.6191 16.4431 15.6133 16.4272 15.6018C16.3958 15.5788 16.3823 15.5382 16.394 15.5011L16.5927 14.8736L16.0633 14.4825C16.0319 14.4591 16.0189 14.4185 16.0309 14.3818C16.043 14.3447 16.0775 14.3195 16.1164 14.3191L16.7746 14.3142L16.9827 13.6898C16.9951 13.6532 17.0298 13.628 17.0687 13.628C17.1076 13.628 17.1423 13.6531 17.1546 13.6898L17.3628 14.3142L18.021 14.3191C18.0599 14.3195 18.0943 14.3447 18.1065 14.3818C18.1184 14.4185 18.1054 14.4591 18.074 14.4825L17.5447 14.8736L17.7433 15.5011C17.755 15.5382 17.7416 15.5788 17.7102 15.6018C17.694 15.6133 17.6753 15.6191 17.6567 15.6191Z" fill="#FF4B55"/>
<path id="Vector_15" d="M17.0686 13.7184L17.2972 14.4041L18.0201 14.4097L17.4386 14.8391L17.6566 15.5283L17.0685 15.108L16.4804 15.5283L16.6985 14.8391L16.117 14.4097L16.8398 14.4041L17.0686 13.7184ZM17.0686 13.5374C16.9907 13.5374 16.9215 13.5873 16.8969 13.6612L16.7091 14.2242L16.1156 14.2288C16.0378 14.2294 15.969 14.2797 15.9449 14.3539C15.9208 14.428 15.9469 14.5091 16.0095 14.5554L16.4869 14.908L16.3079 15.4738C16.2844 15.5481 16.3111 15.629 16.3741 15.6748C16.4058 15.6978 16.4431 15.7094 16.4805 15.7094C16.5174 15.7094 16.5543 15.6981 16.5857 15.6756L17.0686 15.3305L17.5514 15.6756C17.5829 15.698 17.6198 15.7094 17.6567 15.7094C17.694 15.7094 17.7313 15.6978 17.7631 15.6748C17.8261 15.629 17.8527 15.5481 17.8292 15.4738L17.6502 14.908L18.1277 14.5554C18.1903 14.5091 18.2163 14.428 18.1922 14.3539C18.1682 14.2797 18.0994 14.2294 18.0215 14.2288L17.428 14.2242L17.2403 13.6612C17.2156 13.5873 17.1464 13.5374 17.0686 13.5374Z" fill="#F5F5F5"/>
</g>
<defs>
<clipPath id="clip0_2_10946">
<rect width="26.2439" height="26.2439" fill="white" transform="translate(0.552856 0.878033)"/>
</clipPath>
</defs>
</svg>
