<svg width="27" height="28" viewBox="0 0 27 28" fill="none" xmlns="http://www.w3.org/2000/svg">
<g id="south-korea" clip-path="url(#clip0_2_10870)">
<path id="Vector" d="M26.3442 22.5971H1.00536C0.755478 22.5971 0.552856 22.3945 0.552856 22.1446V5.85533C0.552856 5.60545 0.755478 5.40283 1.00536 5.40283H26.3443C26.5942 5.40283 26.7968 5.60545 26.7968 5.85533V22.1446C26.7967 22.3946 26.5941 22.5971 26.3442 22.5971Z" fill="#F5F5F5"/>
<path id="Vector_2" d="M16.1868 10.2342C14.1077 8.84816 11.2994 9.41481 9.91423 11.4903C9.21944 12.5263 9.50187 13.934 10.5414 14.627C11.5801 15.3201 12.9833 15.0386 13.6763 13.999C14.3694 12.9595 15.7735 12.6815 16.8122 13.3709C17.8526 14.064 18.1324 15.4717 17.4384 16.5076C18.8245 14.4286 18.2642 11.6203 16.1868 10.2342Z" fill="#FF4B55"/>
<path id="Vector_3" d="M9.91425 11.4904C9.21946 12.5264 9.50189 13.9341 10.5414 14.6271C11.5801 15.3202 12.9833 15.0387 13.6764 13.9991C14.3694 12.9595 15.7735 12.6816 16.8122 13.371C17.8526 14.064 18.1324 15.4717 17.4384 16.5077C16.0541 18.5904 13.2468 19.15 11.1677 17.7639C9.09039 16.3779 8.5282 13.5696 9.91425 11.4904Z" fill="#41479B"/>
<g id="Group">
<path id="Vector_4" d="M18.4889 8.5252L19.3108 9.76061C19.3799 9.86441 19.352 10.0045 19.2484 10.0739L19.04 10.2135C18.9359 10.2831 18.7952 10.2551 18.7258 10.1509L17.9029 8.91584C17.8336 8.81194 17.8617 8.67154 17.9655 8.60219L18.175 8.46236C18.279 8.39291 18.4196 8.42105 18.4889 8.5252Z" fill="#464655"/>
<path id="Vector_5" d="M19.7569 10.43L20.5815 11.6646C20.6511 11.7689 20.6227 11.9099 20.5181 11.979L20.3088 12.1174C20.2049 12.1861 20.0651 12.1578 19.9959 12.0543L19.1718 10.821C19.1024 10.7171 19.1303 10.5766 19.2342 10.5072L19.443 10.3676C19.5469 10.2981 19.6875 10.326 19.7569 10.43Z" fill="#464655"/>
<path id="Vector_6" d="M19.3691 7.93789L21.4619 11.0786C21.5312 11.1825 21.503 11.323 21.3991 11.3923L21.1888 11.5324C21.0849 11.6018 20.9444 11.5736 20.8751 11.4697L18.7815 8.32919C18.7122 8.22519 18.7404 8.08464 18.8444 8.01539L19.0554 7.875C19.1594 7.80585 19.2998 7.83394 19.3691 7.93789Z" fill="#464655"/>
<path id="Vector_7" d="M20.2466 7.35151L21.0703 8.58933C21.1397 8.69358 21.1112 8.83434 21.0067 8.90338L20.7972 9.04178C20.6933 9.11046 20.5534 9.08222 20.4843 8.97853L19.66 7.74235C19.5906 7.6384 19.6188 7.4979 19.7227 7.4286L19.9328 7.28856C20.0367 7.21921 20.1773 7.24735 20.2466 7.35151Z" fill="#464655"/>
<path id="Vector_8" d="M21.5156 9.26029L22.338 10.4955C22.4072 10.5994 22.3792 10.7396 22.2755 10.809L22.0666 10.9486C21.9626 11.0182 21.8219 10.9901 21.7526 10.8859L20.9302 9.65067C20.861 9.54682 20.889 9.40658 20.9927 9.33723L21.2016 9.19761C21.3055 9.12805 21.4463 9.15609 21.5156 9.26029Z" fill="#464655"/>
<path id="Vector_9" d="M7.35577 15.9469L9.44831 19.0842C9.51761 19.1881 9.48962 19.3286 9.38567 19.3979L9.17613 19.5378C9.07218 19.6072 8.93168 19.5792 8.86228 19.4752L6.76974 16.3379C6.70044 16.234 6.72842 16.0935 6.83237 16.0242L7.04192 15.8843C7.14587 15.8149 7.28641 15.8429 7.35577 15.9469Z" fill="#464655"/>
<path id="Vector_10" d="M6.47729 16.5337L7.29885 17.766C7.3681 17.8699 7.34016 18.0101 7.23647 18.0795L7.02805 18.219C6.92415 18.2886 6.7835 18.2607 6.71405 18.1567L5.89152 16.9247C5.82212 16.8208 5.8501 16.6803 5.95405 16.6109L6.16349 16.4711C6.26739 16.4017 6.40794 16.4297 6.47729 16.5337Z" fill="#464655"/>
<path id="Vector_11" d="M7.74697 18.4392L8.56945 19.6746C8.63865 19.7784 8.61061 19.9187 8.50681 19.988L8.29778 20.1278C8.19378 20.1973 8.05318 20.1692 7.98378 20.0652L7.16079 18.83C7.09154 18.7261 7.11963 18.5857 7.22343 18.5164L7.43297 18.3764C7.53702 18.3069 7.67762 18.3351 7.74697 18.4392Z" fill="#464655"/>
<path id="Vector_12" d="M5.5988 17.1204L7.69001 20.2579C7.75926 20.3617 7.73122 20.5021 7.62753 20.5715L7.41855 20.7112C7.3146 20.7807 7.174 20.7527 7.1046 20.6487L5.01216 17.5116C4.94281 17.4076 4.97095 17.2671 5.0749 17.1978L5.28516 17.0577C5.38901 16.9884 5.5295 17.0164 5.5988 17.1204Z" fill="#464655"/>
<path id="Vector_13" d="M6.77015 11.6648L8.86238 8.52495C8.93173 8.42089 9.07228 8.3928 9.17628 8.46221L9.38577 8.60209C9.48967 8.67144 9.51766 8.81189 9.44841 8.91578L7.35536 12.0539C7.28616 12.1576 7.14618 12.1858 7.04228 12.117L6.83361 11.9789C6.72914 11.9098 6.70075 11.769 6.77015 11.6648Z" fill="#464655"/>
<path id="Vector_14" d="M5.89127 11.0788L7.98386 7.93831C8.05321 7.83426 8.19386 7.80617 8.29787 7.87567L8.50684 8.0154C8.61059 8.08475 8.63858 8.22499 8.56938 8.32889L6.47735 11.4695C6.408 11.5736 6.26745 11.6017 6.16345 11.5323L5.95391 11.3924C5.85006 11.3231 5.82202 11.1827 5.89127 11.0788Z" fill="#464655"/>
<path id="Vector_15" d="M5.01178 10.4952L7.10458 7.3516C7.17393 7.2475 7.31463 7.21936 7.41863 7.28886L7.62761 7.42859C7.73135 7.49794 7.75934 7.63808 7.69025 7.74198L5.59873 10.8861C5.52948 10.9902 5.38888 11.0184 5.28488 10.949L5.07462 10.8089C4.97072 10.7396 4.94263 10.5992 5.01178 10.4952Z" fill="#464655"/>
<path id="Vector_16" d="M17.9031 19.0842L18.7256 17.8522C18.7951 17.7482 18.9358 17.7203 19.0397 17.7899L19.2481 17.9294C19.3518 17.9988 19.3796 18.1391 19.3104 18.2429L18.4889 19.4752C18.4195 19.5792 18.279 19.6072 18.175 19.5378L17.9656 19.398C17.8617 19.3286 17.8337 19.1882 17.9031 19.0842Z" fill="#464655"/>
<path id="Vector_17" d="M19.1718 17.1852L19.9957 15.9471C20.065 15.8431 20.2055 15.8149 20.3095 15.8843L20.5195 16.0242C20.6235 16.0935 20.6516 16.2341 20.5822 16.3381L19.7566 17.5742C19.6873 17.6779 19.5473 17.706 19.4434 17.6371L19.2352 17.4991C19.1309 17.43 19.1025 17.2893 19.1718 17.1852Z" fill="#464655"/>
<path id="Vector_18" d="M18.7813 19.6741L19.6043 18.4389C19.6736 18.3349 19.8141 18.3068 19.9181 18.3761L20.1285 18.5164C20.2324 18.5857 20.2605 18.7261 20.1913 18.8301L19.3687 20.0654C19.2995 20.1694 19.1591 20.1976 19.055 20.1283L18.8441 19.9879C18.7402 19.9187 18.712 19.7781 18.7813 19.6741Z" fill="#464655"/>
<path id="Vector_19" d="M20.0514 17.7656L20.8749 16.5332C20.9443 16.4294 21.0846 16.4014 21.1885 16.4707L21.3988 16.6108C21.5028 16.6802 21.5309 16.8208 21.4614 16.9247L20.6379 18.1571C20.5686 18.2609 20.4282 18.2889 20.3243 18.2196L20.114 18.0795C20.0099 18.0102 19.9819 17.8696 20.0514 17.7656Z" fill="#464655"/>
<path id="Vector_20" d="M19.6603 20.2576L20.4842 19.0246C20.5534 18.9211 20.6932 18.8929 20.797 18.9615L21.0065 19.0999C21.111 19.169 21.1395 19.3099 21.07 19.4142L20.2466 20.6489C20.1773 20.7528 20.0368 20.7808 19.9329 20.7116L19.7228 20.5716C19.6188 20.5022 19.5907 20.3616 19.6603 20.2576Z" fill="#464655"/>
<path id="Vector_21" d="M20.9305 18.3553L21.7525 17.1208C21.8218 17.0167 21.9625 16.9886 22.0665 17.0581L22.2752 17.1976C22.379 17.267 22.407 17.4074 22.3377 17.5113L21.515 18.7442C21.4459 18.8479 21.3057 18.8761 21.2018 18.8072L20.9937 18.6693C20.8895 18.6002 20.8612 18.4595 20.9305 18.3553Z" fill="#464655"/>
</g>
</g>
<defs>
<clipPath id="clip0_2_10870">
<rect width="26.2439" height="26.2439" fill="white" transform="translate(0.552856 0.878021)"/>
</clipPath>
</defs>
</svg>
