<svg width="27" height="28" viewBox="0 0 27 28" fill="none" xmlns="http://www.w3.org/2000/svg">
<g id="spain" clip-path="url(#clip0_2_11002)">
<path id="Vector" d="M1.00536 22.5972H26.3443C26.5942 22.5972 26.7968 22.3946 26.7968 22.1447V5.85539C26.7968 5.60551 26.5942 5.40289 26.3443 5.40289H1.00536C0.755478 5.40294 0.552856 5.60551 0.552856 5.85539V22.1447C0.552856 22.3946 0.755478 22.5972 1.00536 22.5972Z" fill="#C8414B"/>
<path id="Vector_2" d="M26.7967 9.02294H0.552856V18.9777H26.7967V9.02294Z" fill="#FFD250"/>
<path id="Vector_3" d="M11.6388 14L12.0225 12.2736C12.0579 12.1146 11.9368 11.9638 11.7739 11.9638H11.5037C11.3409 11.9638 11.2199 12.1146 11.2552 12.2736L11.6388 14Z" fill="#C8414B"/>
<path id="Vector_4" d="M12.0912 13.0948H11.1863V16.9407H12.0912V13.0948Z" fill="#F5F5F5"/>
<path id="Vector_5" d="M12.3172 12.6428H10.9597V13.0953H12.3172V12.6428Z" fill="#FAB446"/>
<g id="Group">
<path id="Vector_6" d="M12.3174 14H10.0549V14.4525H12.3174V14Z" fill="#C8414B"/>
<path id="Vector_7" d="M12.3174 15.81L10.96 15.3575V14.905L12.3174 15.3575V15.81Z" fill="#C8414B"/>
<path id="Vector_8" d="M4.85148 14L5.23514 12.2736C5.27051 12.1146 5.14949 11.9638 4.98659 11.9638H4.71636C4.55352 11.9638 4.43255 12.1146 4.46782 12.2736L4.85148 14Z" fill="#C8414B"/>
</g>
<path id="Vector_9" d="M6.43505 12.6426C6.18517 12.6426 5.98254 12.8452 5.98254 13.0951V16.0362C5.98254 16.5859 6.49563 17.6199 8.24495 17.6199C9.99427 17.6199 10.5074 16.586 10.5074 16.0362V13.0951C10.5074 12.8452 10.3047 12.6426 10.0549 12.6426H6.43505Z" fill="#F5F5F5"/>
<g id="Group_2">
<path id="Vector_10" d="M8.24495 14.905H5.98254V13.0951C5.98254 12.8452 6.18517 12.6426 6.43505 12.6426H8.24495V14.905Z" fill="#C8414B"/>
<path id="Vector_11" d="M8.245 14.905H10.5074V16.0362C10.5074 16.661 10.001 17.1674 9.3762 17.1674C8.75142 17.1674 8.245 16.661 8.245 16.0362V14.905Z" fill="#C8414B"/>
</g>
<path id="Vector_12" d="M5.98254 14.905H8.24495V16.0362C8.24495 16.661 7.73853 17.1674 7.11375 17.1674C6.48897 17.1674 5.98254 16.661 5.98254 16.0362V14.905Z" fill="#FAB446"/>
<g id="Group_3">
<path id="Vector_13" d="M7.79259 16.9361V14.905H7.34009V17.1446C7.50842 17.1105 7.6605 17.036 7.79259 16.9361Z" fill="#C8414B"/>
<path id="Vector_14" d="M6.88756 17.1446V14.905H6.43506V16.9361C6.5672 17.036 6.71928 17.1105 6.88756 17.1446Z" fill="#C8414B"/>
</g>
<path id="Vector_15" d="M7.79264 14.0001H6.43518V14.4526H7.79264V14.0001Z" fill="#FFB441"/>
<g id="Group_4">
<path id="Vector_16" d="M7.79264 13.0948H6.43518V13.5474H7.79264V13.0948Z" fill="#FAB446"/>
<path id="Vector_17" d="M7.56621 13.364H6.66125V14.1837H7.56621V13.364Z" fill="#FAB446"/>
</g>
<path id="Vector_18" d="M5.30363 13.0948H4.39868V16.9407H5.30363V13.0948Z" fill="#F5F5F5"/>
<g id="Group_5">
<path id="Vector_19" d="M5.53018 16.7152H4.17273V17.1677H5.53018V16.7152Z" fill="#FAB446"/>
<path id="Vector_20" d="M5.53018 12.6428H4.17273V13.0953H5.53018V12.6428Z" fill="#FAB446"/>
</g>
<path id="Vector_21" d="M5.75656 17.1673H3.94666V17.6198H5.75656V17.1673Z" fill="#5064AA"/>
<path id="Vector_22" d="M12.5437 16.7152H11.1863V17.1677H12.5437V16.7152Z" fill="#FAB446"/>
<path id="Vector_23" d="M12.5435 17.1673H10.7336V17.6198H12.5435V17.1673Z" fill="#5064AA"/>
<path id="Vector_24" d="M9.60261 12.1902H6.8877V12.6427H9.60261V12.1902Z" fill="#FAB446"/>
<path id="Vector_25" d="M8.47155 10.8329H8.01904V12.1903H8.47155V10.8329Z" fill="#FFB441"/>
<g id="Group_6">
<path id="Vector_26" d="M7.79259 11.5114C7.41831 11.5114 7.11389 11.2069 7.11389 10.8327C7.11389 10.4584 7.41836 10.154 7.79259 10.154C8.16688 10.154 8.4713 10.4585 8.4713 10.8327C8.47135 11.2069 8.16688 11.5114 7.79259 11.5114ZM7.79259 10.6064C7.66778 10.6064 7.56634 10.7078 7.56634 10.8327C7.56634 10.9575 7.66773 11.0589 7.79259 11.0589C7.91746 11.0589 8.01884 10.9576 8.01884 10.8327C8.01884 10.7079 7.91746 10.6064 7.79259 10.6064Z" fill="#F5F5F5"/>
<path id="Vector_27" d="M8.6975 11.5114C8.32322 11.5114 8.0188 11.2069 8.0188 10.8327C8.0188 10.4584 8.32327 10.154 8.6975 10.154C9.07178 10.154 9.3762 10.4585 9.3762 10.8327C9.3762 11.2069 9.07173 11.5114 8.6975 11.5114ZM8.6975 10.6064C8.57269 10.6064 8.47125 10.7078 8.47125 10.8327C8.47125 10.9575 8.57264 11.0589 8.6975 11.0589C8.82231 11.0589 8.92375 10.9576 8.92375 10.8327C8.9237 10.7079 8.82231 10.6064 8.6975 10.6064Z" fill="#F5F5F5"/>
<path id="Vector_28" d="M9.60241 11.9639C9.22812 11.9639 8.92371 11.6594 8.92371 11.2852C8.92371 10.9109 9.22818 10.6065 9.60241 10.6065C9.97669 10.6065 10.2811 10.911 10.2811 11.2852C10.2811 11.6594 9.97664 11.9639 9.60241 11.9639ZM9.60241 11.059C9.4776 11.059 9.37616 11.1603 9.37616 11.2852C9.37616 11.41 9.47754 11.5115 9.60241 11.5115C9.72722 11.5115 9.82866 11.4101 9.82866 11.2852C9.82866 11.1603 9.72722 11.059 9.60241 11.059Z" fill="#F5F5F5"/>
<path id="Vector_29" d="M6.88756 11.9639C6.51328 11.9639 6.20886 11.6594 6.20886 11.2852C6.20886 10.9109 6.51333 10.6065 6.88756 10.6065C7.26185 10.6065 7.56627 10.911 7.56627 11.2852C7.56632 11.6594 7.26185 11.9639 6.88756 11.9639ZM6.88756 11.059C6.76275 11.059 6.66131 11.1603 6.66131 11.2852C6.66131 11.41 6.7627 11.5115 6.88756 11.5115C7.01243 11.5115 7.11382 11.41 7.11382 11.2852C7.11382 11.1603 7.01243 11.059 6.88756 11.059Z" fill="#F5F5F5"/>
</g>
<path id="Vector_30" d="M9.60251 15.81V16.0362C9.60251 16.161 9.50102 16.2625 9.37626 16.2625C9.2515 16.2625 9.15001 16.161 9.15001 16.0362V15.81H9.60251ZM10.055 15.3575H8.69751V16.0362C8.69751 16.4105 9.00198 16.7149 9.37621 16.7149C9.75049 16.7149 10.0549 16.4104 10.0549 16.0362V15.3575H10.055Z" fill="#FAB446"/>
<path id="Vector_31" d="M9.37621 14.4526C9.12633 14.4526 8.92371 14.2499 8.92371 14.0001V13.5476C8.92371 13.2977 9.12633 13.0951 9.37621 13.0951C9.62609 13.0951 9.82871 13.2977 9.82871 13.5476V14.0001C9.82871 14.2499 9.62609 14.4526 9.37621 14.4526Z" fill="#FFA0D2"/>
<path id="Vector_32" d="M8.24499 15.5834C8.61982 15.5834 8.92369 15.2796 8.92369 14.9047C8.92369 14.5299 8.61982 14.226 8.24499 14.226C7.87015 14.226 7.56628 14.5299 7.56628 14.9047C7.56628 15.2796 7.87015 15.5834 8.24499 15.5834Z" fill="#5064AA"/>
<path id="Vector_33" d="M8.47155 9.92767H8.01904V11.2851H8.47155V9.92767Z" fill="#FAB446"/>
<path id="Vector_34" d="M6.88756 12.1902L6.43506 11.7377L6.70011 11.4726C7.10981 11.0629 7.66555 10.8327 8.24502 10.8327C8.82448 10.8327 9.38017 11.0629 9.78992 11.4726L10.055 11.7377L9.60247 12.1902H6.88756Z" fill="#C8414B"/>
<g id="Group_7">
<path id="Vector_35" d="M8.24505 11.9638C8.37001 11.9638 8.4713 11.8625 8.4713 11.7376C8.4713 11.6126 8.37001 11.5113 8.24505 11.5113C8.12009 11.5113 8.0188 11.6126 8.0188 11.7376C8.0188 11.8625 8.12009 11.9638 8.24505 11.9638Z" fill="#FFD250"/>
<path id="Vector_36" d="M7.3399 11.9638C7.46485 11.9638 7.56615 11.8625 7.56615 11.7376C7.56615 11.6126 7.46485 11.5113 7.3399 11.5113C7.21494 11.5113 7.11365 11.6126 7.11365 11.7376C7.11365 11.8625 7.21494 11.9638 7.3399 11.9638Z" fill="#FFD250"/>
<path id="Vector_37" d="M9.14971 11.9638C9.27467 11.9638 9.37596 11.8625 9.37596 11.7376C9.37596 11.6126 9.27467 11.5113 9.14971 11.5113C9.02476 11.5113 8.92346 11.6126 8.92346 11.7376C8.92346 11.8625 9.02476 11.9638 9.14971 11.9638Z" fill="#FFD250"/>
</g>
<g id="Group_8">
<path id="Vector_38" d="M6.43524 14.0001H4.17273V14.4526H6.43524V14.0001Z" fill="#C8414B"/>
<path id="Vector_39" d="M4.17273 15.81L5.53013 15.3575V14.905L4.17273 15.3575V15.81Z" fill="#C8414B"/>
</g>
</g>
<defs>
<clipPath id="clip0_2_11002">
<rect width="26.2439" height="26.2439" fill="white" transform="translate(0.552856 0.87804)"/>
</clipPath>
</defs>
</svg>
