<svg width="27" height="28" viewBox="0 0 27 28" fill="none" xmlns="http://www.w3.org/2000/svg">
<g id="united-states" clip-path="url(#clip0_2_10771)">
<path id="Vector" d="M26.3442 22.5971H1.00536C0.755478 22.5971 0.552856 22.3945 0.552856 22.1446V5.85533C0.552856 5.60545 0.755478 5.40283 1.00536 5.40283H26.3443C26.5942 5.40283 26.7968 5.60545 26.7968 5.85533V22.1446C26.7967 22.3946 26.5941 22.5971 26.3442 22.5971Z" fill="#F5F5F5"/>
<g id="Group">
<path id="Vector_2" d="M26.7967 6.72553H0.552856V5.85533C0.552856 5.60545 0.755478 5.40283 1.00536 5.40283H26.3443C26.5942 5.40283 26.7968 5.60545 26.7968 5.85533L26.7967 6.72553Z" fill="#FF4B55"/>
<path id="Vector_3" d="M26.7967 10.6934H0.552856V12.016H26.7967V10.6934Z" fill="#FF4B55"/>
<path id="Vector_4" d="M26.7967 8.04797H0.552856V9.37062H26.7967V8.04797Z" fill="#FF4B55"/>
<path id="Vector_5" d="M26.7967 14.6613H1.00536C0.755478 14.6613 0.552856 14.4587 0.552856 14.2088V13.3386H26.7967V14.6613Z" fill="#FF4B55"/>
<path id="Vector_6" d="M26.7967 18.6296H0.552856V19.9523H26.7967V18.6296Z" fill="#FF4B55"/>
<path id="Vector_7" d="M26.3442 22.5972H1.00536C0.755478 22.5972 0.552856 22.3945 0.552856 22.1447V21.2745H26.7967V22.1447C26.7967 22.3946 26.5941 22.5972 26.3442 22.5972Z" fill="#FF4B55"/>
<path id="Vector_8" d="M26.7967 15.9842H0.552856V17.3068H26.7967V15.9842Z" fill="#FF4B55"/>
</g>
<path id="Vector_9" d="M12.3173 5.40289H1.00536C0.755478 5.40289 0.552856 5.60546 0.552856 5.85534V14.2088C0.552856 14.4587 0.755478 14.6613 1.00536 14.6613H12.3174C12.5673 14.6613 12.7699 14.4587 12.7699 14.2088V5.85534C12.7698 5.60546 12.5672 5.40289 12.3173 5.40289Z" fill="#41479B"/>
<g id="Group_2">
<path id="Vector_10" d="M1.82352 6.44153L1.92367 6.7419L2.24029 6.7443C2.2813 6.74466 2.29826 6.79695 2.2653 6.82129L2.01061 7.00941L2.10615 7.31126C2.11855 7.35032 2.07401 7.38272 2.04064 7.35883L1.78307 7.17477L1.5255 7.35888C1.49214 7.38272 1.4477 7.35037 1.46 7.31132L1.55554 7.00946L1.30084 6.82134C1.26788 6.79695 1.28485 6.74471 1.32586 6.74436L1.64247 6.74195L1.74263 6.44158C1.75555 6.40262 1.8105 6.40262 1.82352 6.44153Z" fill="#F5F5F5"/>
<path id="Vector_11" d="M1.82352 8.01265L1.92367 8.31302L2.24029 8.31543C2.2813 8.31579 2.29826 8.36807 2.2653 8.39242L2.01061 8.58054L2.10615 8.88239C2.11855 8.92145 2.07401 8.95385 2.04064 8.92996L1.78307 8.74589L1.5255 8.93001C1.49214 8.95385 1.4477 8.9215 1.46 8.88244L1.55554 8.58059L1.30084 8.39247C1.26788 8.36807 1.28485 8.31584 1.32586 8.31548L1.64247 8.31307L1.74263 8.01271C1.75555 7.9738 1.8105 7.9738 1.82352 8.01265Z" fill="#F5F5F5"/>
<path id="Vector_12" d="M1.82352 9.58394L1.92367 9.88431L2.24029 9.88672C2.2813 9.88708 2.29826 9.93936 2.2653 9.96371L2.01061 10.1518L2.10615 10.4537C2.11855 10.4927 2.07401 10.5251 2.04064 10.5012L1.78307 10.3172L1.5255 10.5013C1.49214 10.5251 1.4477 10.4928 1.46 10.4537L1.55554 10.1519L1.30084 9.96376C1.26788 9.93936 1.28485 9.88713 1.32586 9.88677L1.64247 9.88436L1.74263 9.58399C1.75555 9.54509 1.8105 9.54509 1.82352 9.58394Z" fill="#F5F5F5"/>
<path id="Vector_13" d="M1.82352 11.1552L1.92367 11.4556L2.24029 11.458C2.2813 11.4583 2.29826 11.5106 2.2653 11.535L2.01061 11.7231L2.10615 12.0249C2.11855 12.064 2.07401 12.0964 2.04064 12.0725L1.78307 11.8884L1.5255 12.0726C1.49214 12.0964 1.4477 12.0641 1.46 12.025L1.55554 11.7231L1.30084 11.535C1.26788 11.5106 1.28485 11.4584 1.32586 11.458L1.64247 11.4556L1.74263 11.1553C1.75555 11.1163 1.8105 11.1163 1.82352 11.1552Z" fill="#F5F5F5"/>
<path id="Vector_14" d="M1.82352 12.7265L1.92367 13.0268L2.24029 13.0293C2.2813 13.0296 2.29826 13.0819 2.2653 13.1062L2.01061 13.2944L2.10615 13.5962C2.11855 13.6353 2.07401 13.6677 2.04064 13.6438L1.78307 13.4597L1.5255 13.6438C1.49214 13.6677 1.4477 13.6353 1.46 13.5963L1.55554 13.2944L1.30084 13.1063C1.26788 13.0819 1.28485 13.0297 1.32586 13.0293L1.64247 13.0269L1.74263 12.7265C1.75555 12.6875 1.8105 12.6875 1.82352 12.7265Z" fill="#F5F5F5"/>
<path id="Vector_15" d="M3.043 7.21179L3.14316 7.51216L3.45977 7.51457C3.50078 7.51493 3.51775 7.56721 3.48479 7.59156L3.23009 7.77967L3.32563 8.08153C3.33804 8.12059 3.29349 8.15298 3.26013 8.12909L3.00256 7.94498L2.74499 8.12909C2.71162 8.15293 2.66718 8.12059 2.67948 8.08153L2.77502 7.77967L2.52032 7.59156C2.48737 7.56716 2.50433 7.51493 2.54534 7.51457L2.86196 7.51216L2.96211 7.21179C2.97498 7.17293 3.03003 7.17293 3.043 7.21179Z" fill="#F5F5F5"/>
<path id="Vector_16" d="M3.043 8.78308L3.14316 9.08345L3.45977 9.08586C3.50078 9.08622 3.51775 9.1385 3.48479 9.16285L3.23009 9.35097L3.32563 9.65282C3.33804 9.69188 3.29349 9.72428 3.26013 9.70039L3.00256 9.51627L2.74499 9.70039C2.71162 9.72423 2.66718 9.69193 2.67948 9.65282L2.77502 9.35097L2.52032 9.16285C2.48737 9.13845 2.50433 9.08622 2.54534 9.08586L2.86196 9.08345L2.96211 8.78308C2.97498 8.74418 3.03003 8.74418 3.043 8.78308Z" fill="#F5F5F5"/>
<path id="Vector_17" d="M3.043 10.3543L3.14316 10.6547L3.45977 10.6571C3.50078 10.6575 3.51775 10.7097 3.48479 10.7341L3.23009 10.9222L3.32563 11.2241C3.33804 11.2631 3.29349 11.2955 3.26013 11.2716L3.00256 11.0875L2.74499 11.2716C2.71162 11.2955 2.66718 11.2631 2.67948 11.2241L2.77502 10.9222L2.52032 10.7341C2.48737 10.7097 2.50433 10.6575 2.54534 10.6571L2.86196 10.6547L2.96211 10.3543C2.97498 10.3154 3.03003 10.3154 3.043 10.3543Z" fill="#F5F5F5"/>
<path id="Vector_18" d="M3.043 11.9256L3.14316 12.2259L3.45977 12.2283C3.50078 12.2287 3.51775 12.281 3.48479 12.3053L3.23009 12.4934L3.32563 12.7953C3.33804 12.8344 3.29349 12.8668 3.26013 12.8429L3.00256 12.6588L2.74499 12.8429C2.71162 12.8667 2.66718 12.8344 2.67948 12.7953L2.77502 12.4934L2.52032 12.3053C2.48737 12.2809 2.50433 12.2287 2.54534 12.2283L2.86196 12.2259L2.96211 11.9256C2.97498 11.8867 3.03003 11.8867 3.043 11.9256Z" fill="#F5F5F5"/>
<path id="Vector_19" d="M4.2626 6.44141L4.36276 6.74178L4.67938 6.74419C4.72038 6.74455 4.73735 6.79683 4.70439 6.82118L4.44969 7.00929L4.54524 7.31115C4.55764 7.35021 4.5131 7.3826 4.47973 7.35872L4.22216 7.1746L3.96459 7.35872C3.93122 7.38255 3.88678 7.35021 3.89908 7.31115L3.99463 7.00929L3.73993 6.82118C3.70697 6.79678 3.72394 6.74455 3.76494 6.74419L4.08156 6.74178L4.18172 6.44141C4.19463 6.40251 4.24963 6.40251 4.2626 6.44141Z" fill="#F5F5F5"/>
<path id="Vector_20" d="M4.2626 8.01266L4.36276 8.31303L4.67938 8.31544C4.72038 8.3158 4.73735 8.36808 4.70439 8.39243L4.44969 8.58054L4.54524 8.8824C4.55764 8.92146 4.5131 8.95385 4.47973 8.92997L4.22216 8.74585L3.96459 8.92997C3.93122 8.9538 3.88678 8.92146 3.89908 8.8824L3.99463 8.58054L3.73993 8.39243C3.70697 8.36803 3.72394 8.3158 3.76494 8.31544L4.08156 8.31303L4.18172 8.01266C4.19463 7.97381 4.24963 7.97381 4.2626 8.01266Z" fill="#F5F5F5"/>
<path id="Vector_21" d="M4.2626 9.58392L4.36276 9.88429L4.67938 9.8867C4.72038 9.88706 4.73735 9.93934 4.70439 9.96369L4.44969 10.1518L4.54524 10.4537C4.55764 10.4927 4.5131 10.5251 4.47973 10.5012L4.22216 10.3171L3.96459 10.5012C3.93122 10.5251 3.88678 10.4927 3.89908 10.4537L3.99463 10.1518L3.73993 9.96369C3.70697 9.93929 3.72394 9.88706 3.76494 9.8867L4.08156 9.88429L4.18172 9.58392C4.19463 9.54507 4.24963 9.54507 4.2626 9.58392Z" fill="#F5F5F5"/>
<path id="Vector_22" d="M4.2626 11.1552L4.36276 11.4556L4.67938 11.458C4.72038 11.4584 4.73735 11.5106 4.70439 11.535L4.44969 11.7231L4.54524 12.025C4.55764 12.064 4.5131 12.0964 4.47973 12.0725L4.22216 11.8884L3.96459 12.0725C3.93122 12.0964 3.88678 12.064 3.89908 12.025L3.99463 11.7231L3.73993 11.535C3.70697 11.5106 3.72394 11.4584 3.76494 11.458L4.08156 11.4556L4.18172 11.1552C4.19463 11.1163 4.24963 11.1163 4.2626 11.1552Z" fill="#F5F5F5"/>
<path id="Vector_23" d="M4.2626 12.7265L4.36276 13.0269L4.67938 13.0293C4.72038 13.0296 4.73735 13.0819 4.70439 13.1062L4.44969 13.2944L4.54524 13.5962C4.55764 13.6353 4.5131 13.6677 4.47973 13.6438L4.22216 13.4597L3.96459 13.6438C3.93122 13.6676 3.88678 13.6353 3.89908 13.5962L3.99463 13.2944L3.73993 13.1062C3.70697 13.0819 3.72394 13.0296 3.76494 13.0293L4.08156 13.0269L4.18172 12.7265C4.19463 12.6875 4.24963 12.6875 4.2626 12.7265Z" fill="#F5F5F5"/>
<path id="Vector_24" d="M5.48233 7.21179L5.58249 7.51216L5.8991 7.51457C5.94011 7.51493 5.95708 7.56721 5.92412 7.59156L5.66942 7.77967L5.76496 8.08153C5.77737 8.12059 5.73283 8.15298 5.69946 8.12909L5.44189 7.94498L5.18432 8.12909C5.15095 8.15293 5.10651 8.12059 5.11881 8.08153L5.21435 7.77967L4.95966 7.59156C4.9267 7.56716 4.94366 7.51493 4.98467 7.51457L5.30129 7.51216L5.40144 7.21179C5.41431 7.17293 5.46936 7.17293 5.48233 7.21179Z" fill="#F5F5F5"/>
<path id="Vector_25" d="M5.48233 8.78308L5.58249 9.08345L5.8991 9.08586C5.94011 9.08622 5.95708 9.1385 5.92412 9.16285L5.66942 9.35097L5.76496 9.65282C5.77737 9.69188 5.73283 9.72428 5.69946 9.70039L5.44189 9.51627L5.18432 9.70039C5.15095 9.72423 5.10651 9.69193 5.11881 9.65282L5.21435 9.35097L4.95966 9.16285C4.9267 9.13845 4.94366 9.08622 4.98467 9.08586L5.30129 9.08345L5.40144 8.78308C5.41431 8.74418 5.46936 8.74418 5.48233 8.78308Z" fill="#F5F5F5"/>
<path id="Vector_26" d="M5.48233 10.3543L5.58249 10.6547L5.8991 10.6571C5.94011 10.6575 5.95708 10.7097 5.92412 10.7341L5.66942 10.9222L5.76496 11.2241C5.77737 11.2631 5.73283 11.2955 5.69946 11.2716L5.44189 11.0875L5.18432 11.2716C5.15095 11.2955 5.10651 11.2631 5.11881 11.2241L5.21435 10.9222L4.95966 10.7341C4.9267 10.7097 4.94366 10.6575 4.98467 10.6571L5.30129 10.6547L5.40144 10.3543C5.41431 10.3154 5.46936 10.3154 5.48233 10.3543Z" fill="#F5F5F5"/>
<path id="Vector_27" d="M5.48233 11.9256L5.58249 12.2259L5.8991 12.2283C5.94011 12.2287 5.95708 12.281 5.92412 12.3053L5.66942 12.4934L5.76496 12.7953C5.77737 12.8344 5.73283 12.8668 5.69946 12.8429L5.44189 12.6588L5.18432 12.8429C5.15095 12.8667 5.10651 12.8344 5.11881 12.7953L5.21435 12.4934L4.95966 12.3053C4.9267 12.2809 4.94366 12.2287 4.98467 12.2283L5.30129 12.2259L5.40144 11.9256C5.41431 11.8867 5.46936 11.8867 5.48233 11.9256Z" fill="#F5F5F5"/>
<path id="Vector_28" d="M6.70174 6.44141L6.8019 6.74178L7.11852 6.74419C7.15952 6.74455 7.17649 6.79683 7.14353 6.82118L6.88883 7.00929L6.98438 7.31115C6.99678 7.35021 6.95224 7.3826 6.91887 7.35872L6.66125 7.1746L6.40368 7.35872C6.37031 7.38255 6.32587 7.35021 6.33817 7.31115L6.43371 7.00929L6.17902 6.82118C6.14606 6.79678 6.16302 6.74455 6.20403 6.74419L6.52065 6.74178L6.62081 6.44141C6.63377 6.40251 6.68877 6.40251 6.70174 6.44141Z" fill="#F5F5F5"/>
<path id="Vector_29" d="M6.70174 8.01266L6.8019 8.31303L7.11852 8.31544C7.15952 8.3158 7.17649 8.36808 7.14353 8.39243L6.88883 8.58054L6.98438 8.8824C6.99678 8.92146 6.95224 8.95385 6.91887 8.92997L6.66125 8.74585L6.40368 8.92997C6.37031 8.9538 6.32587 8.92146 6.33817 8.8824L6.43371 8.58054L6.17902 8.39243C6.14606 8.36803 6.16302 8.3158 6.20403 8.31544L6.52065 8.31303L6.62081 8.01266C6.63377 7.97381 6.68877 7.97381 6.70174 8.01266Z" fill="#F5F5F5"/>
<path id="Vector_30" d="M6.70174 9.58392L6.8019 9.88429L7.11852 9.8867C7.15952 9.88706 7.17649 9.93934 7.14353 9.96369L6.88883 10.1518L6.98438 10.4537C6.99678 10.4927 6.95224 10.5251 6.91887 10.5012L6.66125 10.3171L6.40368 10.5012C6.37031 10.5251 6.32587 10.4927 6.33817 10.4537L6.43371 10.1518L6.17902 9.96369C6.14606 9.93929 6.16302 9.88706 6.20403 9.8867L6.52065 9.88429L6.62081 9.58392C6.63377 9.54507 6.68877 9.54507 6.70174 9.58392Z" fill="#F5F5F5"/>
<path id="Vector_31" d="M6.70174 11.1552L6.8019 11.4556L7.11852 11.458C7.15952 11.4584 7.17649 11.5106 7.14353 11.535L6.88883 11.7231L6.98438 12.025C6.99678 12.064 6.95224 12.0964 6.91887 12.0725L6.66125 11.8884L6.40368 12.0725C6.37031 12.0964 6.32587 12.064 6.33817 12.025L6.43371 11.7231L6.17902 11.535C6.14606 11.5106 6.16302 11.4584 6.20403 11.458L6.52065 11.4556L6.62081 11.1552C6.63377 11.1163 6.68877 11.1163 6.70174 11.1552Z" fill="#F5F5F5"/>
<path id="Vector_32" d="M6.70174 12.7265L6.8019 13.0269L7.11852 13.0293C7.15952 13.0296 7.17649 13.0819 7.14353 13.1062L6.88883 13.2944L6.98438 13.5962C6.99678 13.6353 6.95224 13.6677 6.91887 13.6438L6.66125 13.4597L6.40368 13.6438C6.37031 13.6676 6.32587 13.6353 6.33817 13.5962L6.43371 13.2944L6.17902 13.1062C6.14606 13.0819 6.16302 13.0296 6.20403 13.0293L6.52065 13.0269L6.62081 12.7265C6.63377 12.6875 6.68877 12.6875 6.70174 12.7265Z" fill="#F5F5F5"/>
<path id="Vector_33" d="M7.92142 7.21179L8.02157 7.51216L8.33819 7.51457C8.3792 7.51493 8.39616 7.56721 8.36321 7.59156L8.10851 7.77967L8.20405 8.08153C8.21645 8.12059 8.17191 8.15298 8.13854 8.12909L7.88097 7.94498L7.6234 8.12909C7.59004 8.15293 7.5456 8.12059 7.5579 8.08153L7.65344 7.77967L7.39874 7.59156C7.36578 7.56716 7.38275 7.51493 7.42376 7.51457L7.74037 7.51216L7.84053 7.21179C7.8535 7.17293 7.90845 7.17293 7.92142 7.21179Z" fill="#F5F5F5"/>
<path id="Vector_34" d="M7.92142 8.78308L8.02157 9.08345L8.33819 9.08586C8.3792 9.08622 8.39616 9.1385 8.36321 9.16285L8.10851 9.35097L8.20405 9.65282C8.21645 9.69188 8.17191 9.72428 8.13854 9.70039L7.88097 9.51627L7.6234 9.70039C7.59004 9.72423 7.5456 9.69193 7.5579 9.65282L7.65344 9.35097L7.39874 9.16285C7.36578 9.13845 7.38275 9.08622 7.42376 9.08586L7.74037 9.08345L7.84053 8.78308C7.8535 8.74418 7.90845 8.74418 7.92142 8.78308Z" fill="#F5F5F5"/>
<path id="Vector_35" d="M7.92142 10.3543L8.02157 10.6547L8.33819 10.6571C8.3792 10.6575 8.39616 10.7097 8.36321 10.7341L8.10851 10.9222L8.20405 11.2241C8.21645 11.2631 8.17191 11.2955 8.13854 11.2716L7.88097 11.0875L7.6234 11.2716C7.59004 11.2955 7.5456 11.2631 7.5579 11.2241L7.65344 10.9222L7.39874 10.7341C7.36578 10.7097 7.38275 10.6575 7.42376 10.6571L7.74037 10.6547L7.84053 10.3543C7.8535 10.3154 7.90845 10.3154 7.92142 10.3543Z" fill="#F5F5F5"/>
<path id="Vector_36" d="M7.92142 11.9256L8.02157 12.2259L8.33819 12.2283C8.3792 12.2287 8.39616 12.281 8.36321 12.3053L8.10851 12.4934L8.20405 12.7953C8.21645 12.8344 8.17191 12.8668 8.13854 12.8429L7.88097 12.6588L7.6234 12.8429C7.59004 12.8667 7.5456 12.8344 7.5579 12.7953L7.65344 12.4934L7.39874 12.3053C7.36578 12.2809 7.38275 12.2287 7.42376 12.2283L7.74037 12.2259L7.84053 11.9256C7.8535 11.8867 7.90845 11.8867 7.92142 11.9256Z" fill="#F5F5F5"/>
<path id="Vector_37" d="M9.14114 6.44141L9.2413 6.74178L9.55792 6.74419C9.59892 6.74455 9.61589 6.79683 9.58293 6.82118L9.32823 7.00929L9.42378 7.31115C9.43618 7.35021 9.39164 7.3826 9.35827 7.35872L9.1007 7.1746L8.84313 7.35872C8.80976 7.38255 8.76532 7.35021 8.77762 7.31115L8.87317 7.00929L8.61847 6.82118C8.58551 6.79678 8.60248 6.74455 8.64348 6.74419L8.9601 6.74178L9.06026 6.44141C9.07312 6.40251 9.12817 6.40251 9.14114 6.44141Z" fill="#F5F5F5"/>
<path id="Vector_38" d="M9.14114 8.01266L9.2413 8.31303L9.55792 8.31544C9.59892 8.3158 9.61589 8.36808 9.58293 8.39243L9.32823 8.58054L9.42378 8.8824C9.43618 8.92146 9.39164 8.95385 9.35827 8.92997L9.1007 8.74585L8.84313 8.92997C8.80976 8.9538 8.76532 8.92146 8.77762 8.8824L8.87317 8.58054L8.61847 8.39243C8.58551 8.36803 8.60248 8.3158 8.64348 8.31544L8.9601 8.31303L9.06026 8.01266C9.07312 7.97381 9.12817 7.97381 9.14114 8.01266Z" fill="#F5F5F5"/>
<path id="Vector_39" d="M9.14114 9.58392L9.2413 9.88429L9.55792 9.8867C9.59892 9.88706 9.61589 9.93934 9.58293 9.96369L9.32823 10.1518L9.42378 10.4537C9.43618 10.4927 9.39164 10.5251 9.35827 10.5012L9.1007 10.3171L8.84313 10.5012C8.80976 10.5251 8.76532 10.4927 8.77762 10.4537L8.87317 10.1518L8.61847 9.96369C8.58551 9.93929 8.60248 9.88706 8.64348 9.8867L8.9601 9.88429L9.06026 9.58392C9.07312 9.54507 9.12817 9.54507 9.14114 9.58392Z" fill="#F5F5F5"/>
<path id="Vector_40" d="M9.14114 11.1552L9.2413 11.4556L9.55792 11.458C9.59892 11.4584 9.61589 11.5106 9.58293 11.535L9.32823 11.7231L9.42378 12.025C9.43618 12.064 9.39164 12.0964 9.35827 12.0725L9.1007 11.8884L8.84313 12.0725C8.80976 12.0964 8.76532 12.064 8.77762 12.025L8.87317 11.7231L8.61847 11.535C8.58551 11.5106 8.60248 11.4584 8.64348 11.458L8.9601 11.4556L9.06026 11.1552C9.07312 11.1163 9.12817 11.1163 9.14114 11.1552Z" fill="#F5F5F5"/>
<path id="Vector_41" d="M9.14114 12.7265L9.2413 13.0269L9.55792 13.0293C9.59892 13.0296 9.61589 13.0819 9.58293 13.1062L9.32823 13.2944L9.42378 13.5962C9.43618 13.6353 9.39164 13.6677 9.35827 13.6438L9.1007 13.4597L8.84313 13.6438C8.80976 13.6676 8.76532 13.6353 8.77762 13.5962L8.87317 13.2944L8.61847 13.1062C8.58551 13.0819 8.60248 13.0296 8.64348 13.0293L8.9601 13.0269L9.06026 12.7265C9.07312 12.6875 9.12817 12.6875 9.14114 12.7265Z" fill="#F5F5F5"/>
<path id="Vector_42" d="M10.3605 7.21179L10.4607 7.51216L10.7773 7.51457C10.8183 7.51493 10.8353 7.56721 10.8023 7.59156L10.5476 7.77967L10.6431 8.08153C10.6555 8.12059 10.611 8.15298 10.5776 8.12909L10.3201 7.94498L10.0625 8.12909C10.0291 8.15293 9.98468 8.12059 9.99698 8.08153L10.0925 7.77967L9.83783 7.59156C9.80487 7.56716 9.82184 7.51493 9.86284 7.51457L10.1795 7.51216L10.2796 7.21179C10.2925 7.17293 10.3476 7.17293 10.3605 7.21179Z" fill="#F5F5F5"/>
<path id="Vector_43" d="M10.3605 8.78308L10.4607 9.08345L10.7773 9.08586C10.8183 9.08622 10.8353 9.1385 10.8023 9.16285L10.5476 9.35097L10.6431 9.65282C10.6555 9.69188 10.611 9.72428 10.5776 9.70039L10.3201 9.51627L10.0625 9.70039C10.0291 9.72423 9.98468 9.69193 9.99698 9.65282L10.0925 9.35097L9.83783 9.16285C9.80487 9.13845 9.82184 9.08622 9.86284 9.08586L10.1795 9.08345L10.2796 8.78308C10.2925 8.74418 10.3476 8.74418 10.3605 8.78308Z" fill="#F5F5F5"/>
<path id="Vector_44" d="M10.3605 10.3543L10.4607 10.6547L10.7773 10.6571C10.8183 10.6575 10.8353 10.7097 10.8023 10.7341L10.5476 10.9222L10.6431 11.2241C10.6555 11.2631 10.611 11.2955 10.5776 11.2716L10.3201 11.0875L10.0625 11.2716C10.0291 11.2955 9.98468 11.2631 9.99698 11.2241L10.0925 10.9222L9.83783 10.7341C9.80487 10.7097 9.82184 10.6575 9.86284 10.6571L10.1795 10.6547L10.2796 10.3543C10.2925 10.3154 10.3476 10.3154 10.3605 10.3543Z" fill="#F5F5F5"/>
<path id="Vector_45" d="M10.3605 11.9256L10.4607 12.2259L10.7773 12.2283C10.8183 12.2287 10.8353 12.281 10.8023 12.3053L10.5476 12.4934L10.6431 12.7953C10.6555 12.8344 10.611 12.8668 10.5776 12.8429L10.3201 12.6588L10.0625 12.8429C10.0291 12.8667 9.98468 12.8344 9.99698 12.7953L10.0925 12.4934L9.83783 12.3053C9.80487 12.2809 9.82184 12.2287 9.86284 12.2283L10.1795 12.2259L10.2796 11.9256C10.2925 11.8867 10.3476 11.8867 10.3605 11.9256Z" fill="#F5F5F5"/>
<path id="Vector_46" d="M11.5804 6.44141L11.6805 6.74178L11.9971 6.74419C12.0381 6.74455 12.0551 6.79683 12.0221 6.82118L11.7674 7.00929L11.863 7.31115C11.8754 7.35021 11.8308 7.3826 11.7975 7.35872L11.5399 7.1746L11.2823 7.35872C11.249 7.38255 11.2045 7.35021 11.2168 7.31115L11.3124 7.00929L11.0577 6.82118C11.0247 6.79678 11.0417 6.74455 11.0827 6.74419L11.3993 6.74178L11.4995 6.44141C11.5124 6.40251 11.5673 6.40251 11.5804 6.44141Z" fill="#F5F5F5"/>
<path id="Vector_47" d="M11.5804 8.01266L11.6805 8.31303L11.9971 8.31544C12.0381 8.3158 12.0551 8.36808 12.0221 8.39243L11.7674 8.58054L11.863 8.8824C11.8754 8.92146 11.8308 8.95385 11.7975 8.92997L11.5399 8.74585L11.2823 8.92997C11.249 8.9538 11.2045 8.92146 11.2168 8.8824L11.3124 8.58054L11.0577 8.39243C11.0247 8.36803 11.0417 8.3158 11.0827 8.31544L11.3993 8.31303L11.4995 8.01266C11.5124 7.97381 11.5673 7.97381 11.5804 8.01266Z" fill="#F5F5F5"/>
<path id="Vector_48" d="M11.5804 9.58392L11.6805 9.88429L11.9971 9.8867C12.0381 9.88706 12.0551 9.93934 12.0221 9.96369L11.7674 10.1518L11.863 10.4537C11.8754 10.4927 11.8308 10.5251 11.7975 10.5012L11.5399 10.3171L11.2823 10.5012C11.249 10.5251 11.2045 10.4927 11.2168 10.4537L11.3124 10.1518L11.0577 9.96369C11.0247 9.93929 11.0417 9.88706 11.0827 9.8867L11.3993 9.88429L11.4995 9.58392C11.5124 9.54507 11.5673 9.54507 11.5804 9.58392Z" fill="#F5F5F5"/>
<path id="Vector_49" d="M11.5804 11.1552L11.6805 11.4556L11.9971 11.458C12.0381 11.4584 12.0551 11.5106 12.0221 11.535L11.7674 11.7231L11.863 12.025C11.8754 12.064 11.8308 12.0964 11.7975 12.0725L11.5399 11.8884L11.2823 12.0725C11.249 12.0964 11.2045 12.064 11.2168 12.025L11.3124 11.7231L11.0577 11.535C11.0247 11.5106 11.0417 11.4584 11.0827 11.458L11.3993 11.4556L11.4995 11.1552C11.5124 11.1163 11.5673 11.1163 11.5804 11.1552Z" fill="#F5F5F5"/>
<path id="Vector_50" d="M11.5804 12.7265L11.6805 13.0269L11.9971 13.0293C12.0381 13.0296 12.0551 13.0819 12.0221 13.1062L11.7674 13.2944L11.863 13.5962C11.8754 13.6353 11.8308 13.6677 11.7975 13.6438L11.5399 13.4597L11.2823 13.6438C11.249 13.6676 11.2045 13.6353 11.2168 13.5962L11.3124 13.2944L11.0577 13.1062C11.0247 13.0819 11.0417 13.0296 11.0827 13.0293L11.3993 13.0269L11.4995 12.7265C11.5124 12.6875 11.5673 12.6875 11.5804 12.7265Z" fill="#F5F5F5"/>
</g>
</g>
<defs>
<clipPath id="clip0_2_10771">
<rect width="26.2439" height="26.2439" fill="white" transform="translate(0.552856 0.878021)"/>
</clipPath>
</defs>
</svg>
